<svg xmlns="http://www.w3.org/2000/svg" viewBox="0 0 16 16"><g fill="#343838"><circle cx="7.971" cy="7.947" r="2.284" fill="#8c8c8c"/><path d="M15.782 7.239h-1.454A6.4 6.4 0 0 0 8.669 1.59V.136A.136.136 0 0 0 8.54 0H7.383a.136.136 0 0 0-.111.126v1.455A6.4 6.4 0 0 0 1.6 7.239H.146a.136.136 0 0 0-.136.136v1.149c0 .075.06.135.136.135H1.6a6.395 6.395 0 0 0 5.649 5.649v1.454c0 .075.06.136.136.136h1.149c.075 0 .135-.06.135-.136v-1.454a6.395 6.395 0 0 0 5.649-5.649h1.454c.075 0 .136-.06.136-.135v-1.15a.136.136 0 0 0-.126-.135zm-7.82 5.692a4.98 4.98 0 1 1 0-9.959 4.98 4.98 0 0 1 0 9.959z" fill="#8c8c8c"/></g></svg>